<svg version="1.1" id="Layer_1" xmlns="http://www.w3.org/2000/svg" xmlns:xlink="http://www.w3.org/1999/xlink" x="0px" y="0px"
	 width="100%" viewBox="0 0 1409 399" enable-background="new 0 0 1409 399" xml:space="preserve">
<path fill="#000000" opacity="1.000000" stroke="none" 
	d="
M900.000000,400.000000 
	C600.000000,400.000000 300.500031,400.000000 1.000040,400.000000 
	C1.000027,267.000031 1.000027,134.000046 1.000013,1.000058 
	C470.666626,1.000039 940.333252,1.000039 1410.000000,1.000019 
	C1410.000000,133.999939 1410.000000,266.999878 1410.000000,399.999908 
	C1240.166626,400.000000 1070.333374,400.000000 900.000000,400.000000 
M758.008972,355.033997 
	C758.008972,346.272766 758.008972,337.511536 758.008972,328.400024 
	C756.267212,328.400024 753.902588,328.400024 751.319702,328.400024 
	C751.319702,338.308868 751.319702,347.874603 751.319702,357.833252 
	C753.117310,357.833252 754.570129,357.833252 756.747498,358.278290 
	C761.618896,358.589050 766.490356,358.899841 771.793396,359.238129 
	C772.167480,355.786316 772.462646,353.063049 772.757751,350.339783 
	C772.156494,349.882080 771.555237,349.424408 770.954041,348.966705 
	C769.405518,357.761902 763.347595,355.964813 758.008972,355.033997 
M664.958801,158.105545 
	C662.735046,148.872818 660.511230,139.640106 658.132019,129.761932 
	C653.015137,138.904160 652.642761,148.810120 653.024292,159.754883 
	C654.244751,165.153534 655.465149,170.552185 656.550476,175.353409 
	C663.338501,177.634995 665.641724,172.726059 668.217712,169.606735 
	C669.208252,168.407227 667.390442,164.772324 666.649048,162.308243 
	C666.283081,161.091660 665.455261,160.014069 664.958801,158.105545 
M688.782104,119.756783 
	C691.455933,116.327438 694.174561,112.931252 696.758728,109.435623 
	C697.180603,108.864876 697.008728,107.855186 697.818909,106.989174 
	C702.241760,103.987572 706.664612,100.985970 711.835266,97.961327 
	C716.299927,96.627472 721.603088,96.376747 725.040405,93.715813 
	C730.752075,89.294182 737.288452,89.361717 743.553589,87.680267 
	C746.501465,86.889099 749.194031,85.146530 752.859680,83.970680 
	C760.217896,82.494392 767.627563,81.231903 774.918396,79.476044 
	C781.059692,77.997063 787.062866,75.944695 793.881287,73.973236 
	C799.662903,71.976898 805.464233,70.035133 811.218689,67.963318 
	C814.549561,66.764046 817.805054,65.355316 821.872803,63.959473 
	C826.719055,60.741943 831.374756,57.177635 836.455078,54.386116 
	C844.588013,49.917320 848.756348,42.730400 850.707825,34.227154 
	C851.447327,31.004807 852.401001,26.894350 848.562744,23.060343 
	C843.109802,34.806339 832.541016,39.681736 822.620972,44.737270 
	C814.982483,48.630108 806.225586,50.317692 797.998352,53.082283 
	C797.194641,53.352348 796.618835,54.300629 795.079468,54.992805 
	C792.973999,55.226326 790.803284,55.209454 788.774658,55.737915 
	C781.123779,57.730938 773.494690,59.817963 765.905640,62.034634 
	C760.874084,63.504284 755.924438,65.254623 750.041077,66.975426 
	C747.073242,67.099861 743.871460,66.545998 741.180969,67.474297 
	C732.685120,70.405670 724.380737,73.892258 715.296875,77.249954 
	C709.754944,80.174683 704.136353,82.966080 698.709106,86.090080 
	C696.551880,87.331795 694.818909,89.310333 692.271973,91.288055 
	C691.630371,91.925110 691.060303,92.661575 690.335632,93.183128 
	C685.475586,96.680656 680.875061,100.415878 677.434387,106.109680 
	C675.914551,109.389931 674.394714,112.670181 672.232971,116.339989 
	C671.230225,119.977158 670.108826,123.587402 669.274902,127.262871 
	C668.858215,129.099060 668.966858,131.054443 668.222107,133.326218 
	C667.225586,141.923401 670.537415,149.665527 673.122803,157.534912 
	C673.332336,158.172806 674.438416,158.772568 675.201172,158.882721 
	C675.715942,158.957031 676.764221,158.232285 676.884705,157.706940 
	C678.687683,149.845657 680.375854,141.958054 682.731445,133.684662 
	C684.533081,129.142059 686.334656,124.599457 688.782104,119.756783 
M536.242126,83.031288 
	C527.258484,77.853203 518.274841,72.675117 509.199310,67.444092 
	C507.738159,74.154114 512.424744,78.909286 514.787292,84.358223 
	C516.136658,87.470482 517.533264,90.939980 522.180176,91.678902 
	C523.520569,92.784821 524.744812,94.086029 526.221008,94.963470 
	C533.298218,99.170135 540.510376,103.093536 549.342224,104.634071 
	C551.654968,105.309998 553.949768,106.056427 556.283569,106.649574 
	C566.168213,109.161835 576.064392,111.628540 586.426147,114.795319 
	C602.256226,117.274414 616.849487,122.737717 629.456055,133.675507 
	C630.658081,124.456421 622.873352,112.289040 612.807129,106.327126 
	C601.529541,100.509621 589.512390,97.005623 576.647217,94.245384 
	C569.928589,92.490067 563.187988,90.813766 556.498596,88.953224 
	C551.566345,87.581367 546.700928,85.968948 541.338318,83.906059 
	C540.232666,83.676605 539.126953,83.447151 537.516724,83.089653 
	C537.346252,83.121979 537.175842,83.154312 536.242126,83.031288 
M613.850159,135.472000 
	C613.647644,135.157654 613.371216,135.065674 612.349243,134.834122 
	C606.804871,133.232712 602.242859,128.384781 595.758972,129.813400 
	C595.428650,129.886185 594.987610,129.176285 594.554138,129.107178 
	C591.725586,128.656296 588.884949,128.281738 585.606934,127.230453 
	C564.908325,122.922356 543.498779,120.889435 524.881958,108.199997 
	C526.581055,113.760315 528.442383,119.021957 531.795105,123.038651 
	C536.305420,128.442108 541.195801,134.008759 549.377930,135.691193 
	C554.282166,137.427673 559.071838,139.698563 564.116577,140.779312 
	C572.322693,142.537323 580.695618,143.516968 589.824158,144.971405 
	C593.317688,145.650360 596.795410,146.433624 600.310974,146.967056 
	C602.253967,147.261871 604.428528,146.660385 606.208862,147.286682 
	C613.418091,149.822784 620.514893,152.678589 628.431519,155.714935 
	C625.863831,147.888275 622.547485,141.074814 614.921021,136.453339 
	C614.621704,136.272491 614.322327,136.091644 613.850159,135.472000 
M683.237854,161.995895 
	C682.257446,163.443207 681.348999,164.945999 680.283630,166.327850 
	C676.523804,171.204987 672.710266,176.040680 668.182495,180.983582 
	C667.593689,181.259323 666.962646,181.469955 666.422302,181.820450 
	C655.606323,188.836044 643.849365,190.512283 631.368591,187.974396 
	C626.783875,187.042130 622.245850,185.870316 617.647461,185.018295 
	C613.298950,184.212555 608.915649,183.502991 604.515625,183.103363 
	C602.106750,182.884583 599.631714,183.394653 597.186523,183.576065 
	C597.068848,184.112091 596.951111,184.648102 596.833435,185.184128 
	C599.868408,187.713959 603.085876,190.057846 605.896973,192.815933 
	C610.454041,197.287140 616.153931,199.665375 621.875366,201.923172 
	C632.362549,206.061646 643.226379,205.740738 654.145447,204.006302 
	C655.605408,203.774399 657.328979,204.187943 658.538391,203.554306 
	C667.731873,198.737869 677.737610,195.176254 685.144470,186.400330 
	C690.181580,180.703674 694.286804,174.479050 696.779602,166.505646 
	C697.498474,162.892960 699.090820,159.195923 698.751831,155.685379 
	C698.075134,148.676880 696.375977,141.763214 694.981812,134.834015 
	C694.845581,134.156876 693.892395,133.644150 693.318359,133.055115 
	C692.878540,133.785919 692.257202,134.464188 692.027893,135.255936 
	C690.337219,141.094208 688.781921,146.971924 687.064392,152.801971 
	C686.166565,155.849380 685.026794,158.825485 683.237854,161.995895 
M835.854431,85.636414 
	C836.468079,84.359795 837.074951,83.079857 837.696533,81.807137 
	C839.950073,77.193298 842.756653,72.725510 841.662659,66.472099 
	C834.819275,71.121315 828.390808,75.488693 821.151611,79.963097 
	C816.765747,81.632675 812.430481,83.455032 807.979980,84.929489 
	C803.392517,86.449341 798.687378,87.612000 794.044373,88.967354 
	C791.684631,89.656181 789.348206,90.425102 786.192505,91.017609 
	C784.492920,91.669388 782.841431,92.526398 781.085571,92.938377 
	C772.149658,95.034950 763.133484,96.812340 754.256409,99.127007 
	C750.027649,100.229622 746.045471,102.277664 741.219482,104.003319 
	C728.959717,110.289192 716.344666,125.077034 721.180847,133.436615 
	C722.340759,132.572052 723.630188,131.921127 724.502502,130.910233 
	C729.919922,124.632019 737.861450,122.532982 744.913635,119.415764 
	C751.737061,116.399643 759.547668,115.562859 766.966614,113.963448 
	C773.948914,112.458160 780.986084,111.206856 788.718323,109.737221 
	C791.398987,108.498848 793.993713,106.999847 796.779663,106.080460 
	C801.485535,104.527435 806.312500,103.341347 811.824951,101.968750 
	C815.225708,100.292900 818.905090,99.011086 821.962341,96.849449 
	C826.622009,93.554840 830.851196,89.651398 835.854431,85.636414 
M605.161316,67.007561 
	C603.124634,66.970047 601.088013,66.932526 598.970581,66.145760 
	C598.526001,65.774155 598.130310,65.171951 597.629456,65.065826 
	C591.052429,63.672226 584.461670,62.343357 577.871094,61.014423 
	C577.075073,60.853905 576.123962,61.021099 575.474731,60.642208 
	C568.846375,56.773674 561.512878,55.606884 554.014771,54.051769 
	C551.911682,53.646893 549.650330,53.606194 547.733154,52.773315 
	C539.952393,49.393070 532.318237,45.676704 524.551880,42.261833 
	C516.769165,38.839790 510.219543,34.032967 505.374969,26.916126 
	C504.386597,25.464172 502.407318,24.686739 500.153595,23.075640 
	C499.696014,31.580488 500.477478,38.409889 505.018463,44.112720 
	C507.982056,47.834541 511.139923,51.623379 514.926636,54.409184 
	C519.186462,57.543110 524.251160,59.583145 529.033447,62.840195 
	C531.068970,63.897041 533.028137,65.155853 535.158813,65.961044 
	C538.001282,67.035263 541.485657,67.065033 543.796692,68.764313 
	C549.896484,73.249443 557.425171,73.043442 564.813477,75.963959 
	C565.945068,76.013947 567.131165,75.861588 568.198608,76.149452 
	C572.483337,77.304893 576.731262,78.596718 581.714294,80.211800 
	C582.629700,80.477219 583.531677,80.808914 584.462646,80.997063 
	C589.667480,82.048866 595.511047,81.918106 599.943970,84.357895 
	C606.990295,88.236061 614.558594,88.536926 622.330322,90.768311 
	C624.450073,91.846054 626.556580,92.950760 628.692017,93.996338 
	C634.420654,96.801315 640.591797,98.959213 645.776550,102.545990 
	C650.938904,106.117241 655.062866,111.171570 659.778320,115.424652 
	C660.545593,116.116653 662.877014,116.507584 663.035461,116.224998 
	C665.180908,112.397057 667.816650,108.586830 668.716858,104.423218 
	C669.188904,102.240120 666.884521,99.070892 665.139648,96.906769 
	C663.516113,94.893196 660.971558,93.622276 658.722717,91.344215 
	C651.621460,86.088829 644.408447,81.022018 635.630920,77.234116 
	C634.362061,76.483887 633.181030,75.424774 631.809692,75.034851 
	C624.374084,72.920654 616.880859,71.009369 609.438416,68.918243 
	C608.514465,68.658646 607.773804,67.746651 606.485046,67.035492 
	C606.485046,67.035492 606.024414,67.148125 605.161316,67.007561 
M593.594788,157.307144 
	C580.788635,156.697769 568.214294,154.998276 556.312195,148.982681 
	C557.968018,156.974670 561.698547,162.869583 569.275940,166.760452 
	C574.660400,169.677322 580.115906,172.398392 586.352661,172.973358 
	C588.642334,173.184448 590.928833,173.437958 593.221558,173.607239 
	C602.716553,174.308319 612.213318,174.984573 621.716492,175.670441 
	C621.998047,170.357544 617.837769,163.607315 614.514648,161.996094 
	C608.040771,158.857162 601.193665,157.855133 593.594788,157.307144 
M781.841919,166.979294 
	C789.840088,163.006271 795.484436,155.015533 794.286804,148.710068 
	C792.573975,149.278000 790.785339,149.570831 789.309875,150.412491 
	C783.075928,153.968491 776.649841,156.281113 769.254089,156.137238 
	C764.814819,156.050903 760.348999,157.323135 755.008789,157.994507 
	C748.218384,158.791061 740.954712,157.537674 735.000244,162.081802 
	C730.519409,165.501266 726.833557,169.576431 726.151001,175.588684 
	C730.117432,175.379684 733.684265,175.224762 737.246582,174.997818 
	C747.596252,174.338531 758.011719,174.145264 768.261230,172.744247 
	C772.727844,172.133698 776.852722,169.022598 781.841919,166.979294 
M784.251892,124.038292 
	C780.264648,124.689217 776.277344,125.339325 772.290222,125.991241 
	C763.935486,127.357300 755.576050,128.696838 747.237854,130.157364 
	C746.724121,130.247330 746.378052,131.294296 745.197876,132.005707 
	C737.024109,133.222900 732.176453,139.515686 726.553650,144.489624 
	C723.003662,147.629959 723.446289,151.961517 725.970642,154.054077 
	C733.377930,151.568222 740.075928,148.901794 747.003052,147.132614 
	C752.230713,145.797470 757.760681,145.672729 763.138611,144.889099 
	C766.455383,144.405807 769.739258,143.696960 773.879944,143.004456 
	C783.028625,141.331589 792.310791,140.184860 800.722717,135.740692 
	C802.759094,134.664825 804.970215,133.919556 807.729736,132.763916 
	C809.595459,131.481674 811.602478,130.362091 813.300781,128.887100 
	C818.673889,124.220490 823.755737,119.329971 822.813965,110.451950 
	C820.840393,111.319389 819.381775,111.916695 817.961060,112.593414 
	C814.216309,114.377045 810.626648,116.612885 806.722961,117.908638 
	C799.577148,120.280540 792.249695,122.105171 784.251892,124.038292 
M730.783508,239.261429 
	C730.175720,240.161346 729.395203,240.989731 728.988037,241.972748 
	C726.206604,248.688202 723.460144,255.418991 720.793274,262.180634 
	C719.397278,265.720215 718.310608,269.383942 716.862061,272.900055 
	C714.500305,278.632385 711.956543,284.289734 709.489624,289.978699 
	C709.026978,289.990814 708.564392,290.002930 708.101746,290.015015 
	C707.303040,287.436768 706.714661,284.769165 705.664185,282.297913 
	C703.035400,276.113556 700.027527,270.087677 697.483582,263.870636 
	C693.877625,255.058197 690.696838,246.069305 686.966125,237.312683 
	C686.328491,235.816147 683.894958,234.260132 682.217773,234.174957 
	C675.239807,233.820450 668.231506,233.930664 661.240356,234.106995 
	C660.183594,234.133636 659.158447,235.411896 658.118652,236.111221 
	C659.221985,236.734436 660.288208,237.811798 661.434814,237.905502 
	C667.814819,238.426926 670.169312,240.541748 669.893616,247.095825 
	C669.626587,253.440674 668.581726,259.749512 668.028137,266.087219 
	C667.816772,268.507263 668.177979,270.974609 668.007324,273.401367 
	C667.402100,282.010437 666.440125,290.601227 666.077637,299.218475 
	C665.784485,306.189117 665.071106,307.525116 658.479126,310.052063 
	C657.393127,310.468353 656.684570,311.869293 655.801575,312.815155 
	C665.299133,313.987305 673.780334,314.081512 682.253418,313.860626 
	C683.243896,313.834808 684.189026,312.070038 685.909668,310.362885 
	C676.540039,309.569885 676.130310,309.361664 674.898804,301.597504 
	C674.453186,298.787903 675.023865,295.826782 675.026062,292.934723 
	C675.035461,280.608948 674.994324,268.283203 675.006287,255.957443 
	C675.007629,254.586777 675.230286,253.216324 675.350342,251.845779 
	C677.154297,252.937134 678.194763,254.191025 678.741821,255.632233 
	C681.062012,261.743713 683.046875,267.987396 685.502502,274.041534 
	C690.415405,286.153412 695.493103,298.200256 700.684631,310.195190 
	C701.331665,311.690216 703.270569,313.855896 704.278931,313.690247 
	C705.996094,313.408173 707.900085,311.807190 708.897522,310.234985 
	C710.087891,308.358795 710.276855,305.878021 711.124512,303.748627 
	C716.502747,290.237885 721.916382,276.740967 727.380737,263.264801 
	C728.872803,259.584930 730.578979,255.991837 732.186951,252.358917 
	C733.066467,256.987915 732.902893,261.317963 733.097595,265.631836 
	C733.649658,277.861908 734.560913,290.080109 734.865295,302.314545 
	C734.962097,306.203735 733.262085,309.701721 728.288269,310.114410 
	C727.056152,310.216614 725.930542,311.602203 724.755920,312.397827 
	C724.989807,312.929138 725.223633,313.460480 725.457458,313.991791 
	C735.748718,313.991791 746.040588,314.046722 756.330139,313.916809 
	C757.513794,313.901855 758.684387,312.856140 759.861023,312.288300 
	C758.710632,311.521423 757.649231,310.524017 756.390381,310.038025 
	C754.112976,309.158783 751.008606,309.817200 750.939758,305.794189 
	C750.772339,296.013733 750.355042,286.237518 750.030579,276.459839 
	C749.975708,274.804199 749.910400,273.148010 749.801208,271.495270 
	C749.224243,262.763275 748.277832,254.035355 748.203369,245.299652 
	C748.169312,241.315414 749.805542,237.453873 755.398804,237.855560 
	C756.614197,237.942841 757.948669,236.372818 759.228271,235.566116 
	C758.967590,235.052078 758.706848,234.538025 758.446106,234.023987 
	C751.640686,234.023987 744.826904,234.224396 738.033081,233.943985 
	C734.341064,233.791595 732.037720,234.957550 730.783508,239.261429 
M568.099609,313.983368 
	C575.264221,313.992798 582.431702,314.109222 589.591187,313.922394 
	C591.042908,313.884521 592.464661,312.702057 593.900269,312.047272 
	C592.682739,311.329987 591.546631,310.290222 590.231812,309.957916 
	C586.750793,309.078064 585.172791,307.693695 586.540588,303.694427 
	C588.229248,298.757141 589.212891,293.578705 590.554749,288.293640 
	C599.826965,287.826843 609.035522,287.363251 617.871216,286.918457 
	C619.052856,289.368500 620.035095,291.179260 620.809937,293.074829 
	C621.589600,294.982208 622.091125,297.001862 622.839478,298.923706 
	C625.586243,305.977661 625.182068,307.028900 618.702942,310.110291 
	C618.010681,310.439514 617.072571,311.835266 617.239929,312.093262 
	C617.754883,312.887268 618.736938,313.868134 619.562439,313.891510 
	C625.056335,314.046906 630.556702,313.971527 636.054993,313.971375 
	C640.933105,313.971252 645.811279,313.971344 650.689392,313.971344 
	C650.859253,313.457275 651.029114,312.943207 651.198914,312.429138 
	C650.247925,311.610535 649.386169,310.243561 648.329956,310.071686 
	C644.499817,309.448303 642.773499,306.540771 641.484131,303.655121 
	C637.480408,294.694489 633.728333,285.616180 630.088257,276.499786 
	C626.279175,266.960297 622.694275,257.330902 619.052185,247.725342 
	C617.972717,244.878311 616.522827,242.040482 616.165466,239.086792 
	C615.788147,235.967285 614.877380,232.714371 611.800720,233.350342 
	C608.316711,234.070541 603.560059,236.096451 602.329285,238.872498 
	C598.446411,247.630432 596.276123,257.128479 592.832642,266.105927 
	C589.503845,274.784271 584.693909,282.940399 581.872314,291.754150 
	C579.165344,300.209717 576.268250,307.764496 567.189575,311.113220 
	C566.901917,311.219330 567.210327,312.941406 568.099609,313.983368 
M790.486755,313.987701 
	C794.886353,313.987701 799.285950,313.987701 803.685608,313.987701 
	C803.867676,313.303375 804.049744,312.619019 804.231873,311.934692 
	C802.783508,311.298676 801.309998,310.072968 799.891418,310.133667 
	C795.002441,310.342773 794.145203,307.283234 794.136658,303.568695 
	C794.092163,284.240845 794.127502,264.912811 794.136475,245.584854 
	C794.138611,240.991180 794.921814,237.191284 801.004456,237.848145 
	C801.867004,237.941269 802.875244,236.684570 803.816040,236.052628 
	C802.730591,235.381683 801.657166,234.152283 800.557861,234.128708 
	C792.230347,233.949997 783.897766,234.006363 775.566772,233.992310 
	C772.815369,233.987656 770.063904,233.991562 767.312500,233.991562 
	C767.134949,234.699158 766.957458,235.406754 766.779968,236.114365 
	C768.312866,236.741730 769.866272,237.942902 771.374878,237.889099 
	C775.942017,237.726288 777.897583,240.294083 777.927246,244.173492 
	C778.074951,263.499725 778.163269,282.830719 777.836792,302.152679 
	C777.770996,306.044067 776.035828,309.974518 770.673706,310.083496 
	C769.477478,310.107819 768.307922,311.443573 767.126038,312.175537 
	C768.416321,312.789734 769.692322,313.896240 770.999390,313.934143 
	C777.158875,314.112915 783.326843,313.998810 790.486755,313.987701 
M730.139404,200.701157 
	C739.294128,197.466537 747.127380,192.564087 753.257141,183.075516 
	C750.300964,183.075516 748.841431,182.915054 747.429321,183.105881 
	C743.344299,183.657867 739.294739,184.504959 735.199768,184.940567 
	C731.909607,185.290558 727.913391,184.069702 725.382996,185.535522 
	C718.116272,189.744949 710.182983,190.025497 702.841187,188.592056 
	C696.249390,187.305038 692.147400,188.024521 688.756470,193.706635 
	C687.239197,196.248993 685.138428,198.443100 682.930908,201.271317 
	C688.926331,202.584763 693.613831,203.844955 698.381958,204.589050 
	C702.923035,205.297668 707.638489,206.223892 712.113953,205.688751 
	C718.113220,204.971420 723.955322,202.940033 730.139404,200.701157 
M634.005981,342.579468 
	C634.109436,350.229095 637.357544,356.294495 642.565308,357.863983 
	C648.904053,359.774261 654.672546,359.435944 660.093689,354.549500 
	C668.034180,347.392242 667.554077,336.665405 659.267395,330.211365 
	C650.832214,323.641724 633.528809,328.325348 634.005981,342.579468 
M619.016235,348.346924 
	C619.016235,341.773193 619.016235,335.199493 619.016235,328.359009 
	C617.464478,328.359009 615.425415,328.359009 612.873474,328.359009 
	C612.873474,332.607483 612.873474,336.530701 612.873474,340.566162 
	C608.326355,340.566162 604.303467,340.566162 599.968140,340.566162 
	C599.968140,337.964783 599.977478,335.812073 599.966370,333.659485 
	C599.935913,327.775970 599.146179,327.210449 593.859131,328.661957 
	C593.859131,338.390900 593.859131,347.956726 593.859131,357.471588 
	C598.332886,358.677673 600.237244,357.553864 599.997803,353.347260 
	C599.830811,350.413391 599.965576,347.462402 599.965576,344.449524 
	C604.675232,344.449524 608.694641,344.449524 612.593994,344.449524 
	C612.788025,345.236176 612.930420,345.557220 612.937012,345.881073 
	C612.984558,348.210693 612.995850,350.541046 613.034912,352.870880 
	C613.122803,358.114594 616.309937,359.937378 620.340027,358.126770 
	C619.861511,354.941559 619.437134,352.117126 619.016235,348.346924 
M720.368408,328.127838 
	C719.269897,328.742035 717.228760,329.335114 717.214539,329.973511 
	C717.007690,339.218689 717.072754,348.469971 717.072754,357.926544 
	C724.626282,357.888428 732.164246,362.538330 738.808533,353.794159 
	C732.700195,354.807587 727.636963,355.647583 721.515808,356.663147 
	C722.090210,351.402924 722.756653,347.724640 722.817749,344.036346 
	C722.875000,340.578888 722.323792,337.107574 721.976379,333.648773 
	C721.798096,331.874756 721.480042,330.114807 720.368408,328.127838 
M686.230591,356.889954 
	C687.616333,357.232574 689.002136,357.575226 690.946777,358.056030 
	C690.946777,348.394135 691.070862,339.603180 690.791443,330.825073 
	C690.756104,329.714142 688.604248,328.670593 687.432983,327.595825 
	C686.984924,327.952759 686.536865,328.309692 686.088806,328.666626 
	C686.088806,337.777832 686.088806,346.889069 686.230591,356.889954 
M733.958130,340.942322 
	C732.183350,339.115295 730.060974,339.709015 729.453491,340.576447 
	C731.073547,342.206970 732.693665,343.837463 734.313721,345.467957 
	C733.952454,346.262573 733.591187,347.057159 733.229858,347.851776 
	C733.486450,345.822968 733.743042,343.794159 733.958130,340.942322 
z"/>
<path fill="#1E4B8A" opacity="1.000000" stroke="none" 
	d="
M730.885620,238.876572 
	C732.037720,234.957550 734.341064,233.791595 738.033081,233.943985 
	C744.826904,234.224396 751.640686,234.023987 758.446106,234.023987 
	C758.706848,234.538025 758.967590,235.052078 759.228271,235.566116 
	C757.948669,236.372818 756.614197,237.942841 755.398804,237.855560 
	C749.805542,237.453873 748.169312,241.315414 748.203369,245.299652 
	C748.277832,254.035355 749.224243,262.763275 749.801208,271.495270 
	C749.910400,273.148010 749.975708,274.804199 750.030579,276.459839 
	C750.355042,286.237518 750.772339,296.013733 750.939758,305.794189 
	C751.008606,309.817200 754.112976,309.158783 756.390381,310.038025 
	C757.649231,310.524017 758.710632,311.521423 759.861023,312.288330 
	C758.684387,312.856140 757.513794,313.901855 756.330139,313.916809 
	C746.040588,314.046722 735.748718,313.991791 725.457458,313.991791 
	C725.223633,313.460480 724.989807,312.929138 724.755920,312.397827 
	C725.930542,311.602203 727.056152,310.216614 728.288269,310.114410 
	C733.262085,309.701721 734.962097,306.203735 734.865295,302.314545 
	C734.560913,290.080109 733.649658,277.861908 733.097595,265.631836 
	C732.902893,261.317963 733.066467,256.987915 732.186951,252.358917 
	C730.578979,255.991837 728.872803,259.584930 727.380737,263.264801 
	C721.916382,276.740967 716.502747,290.237885 711.124512,303.748627 
	C710.276855,305.878021 710.087891,308.358795 708.897522,310.234985 
	C707.900085,311.807190 705.996094,313.408173 704.278931,313.690247 
	C703.270569,313.855896 701.331665,311.690216 700.684631,310.195190 
	C695.493103,298.200256 690.415405,286.153412 685.502502,274.041534 
	C683.046875,267.987396 681.062012,261.743713 678.741821,255.632233 
	C678.194763,254.191025 677.154297,252.937134 675.350342,251.845779 
	C675.230286,253.216324 675.007629,254.586777 675.006287,255.957443 
	C674.994324,268.283203 675.035461,280.608948 675.026062,292.934723 
	C675.023865,295.826782 674.453186,298.787903 674.898804,301.597504 
	C676.130310,309.361664 676.540039,309.569885 685.909668,310.362885 
	C684.189026,312.070038 683.243896,313.834808 682.253418,313.860626 
	C673.780334,314.081512 665.299133,313.987305 655.801575,312.815155 
	C656.684570,311.869293 657.393127,310.468353 658.479126,310.052063 
	C665.071106,307.525116 665.784485,306.189117 666.077637,299.218475 
	C666.440125,290.601227 667.402100,282.010437 668.007324,273.401367 
	C668.177979,270.974609 667.816772,268.507263 668.028137,266.087219 
	C668.581726,259.749512 669.626587,253.440674 669.893616,247.095825 
	C670.169312,240.541748 667.814819,238.426926 661.434814,237.905502 
	C660.288208,237.811798 659.221985,236.734436 658.118652,236.111206 
	C659.158447,235.411896 660.183594,234.133636 661.240356,234.106995 
	C668.231506,233.930664 675.239807,233.820450 682.217773,234.174957 
	C683.894958,234.260132 686.328491,235.816147 686.966125,237.312683 
	C690.696838,246.069305 693.877625,255.058197 697.483582,263.870636 
	C700.027527,270.087677 703.035400,276.113556 705.664185,282.297913 
	C706.714661,284.769165 707.303040,287.436768 708.101746,290.015015 
	C708.564392,290.002930 709.026978,289.990814 709.489624,289.978699 
	C711.956543,284.289734 714.500305,278.632385 716.862061,272.900055 
	C718.310608,269.383942 719.397278,265.720215 720.793274,262.180634 
	C723.460144,255.418991 726.206604,248.688202 728.988037,241.972748 
	C729.395203,240.989731 730.175720,240.161346 730.885620,238.876572 
z"/>
<path fill="#1E4B8A" opacity="1.000000" stroke="none" 
	d="
M567.670288,313.946777 
	C567.210327,312.941406 566.901917,311.219330 567.189575,311.113220 
	C576.268250,307.764496 579.165344,300.209717 581.872314,291.754150 
	C584.693909,282.940399 589.503845,274.784271 592.832642,266.105927 
	C596.276123,257.128479 598.446411,247.630432 602.329285,238.872498 
	C603.560059,236.096451 608.316711,234.070541 611.800720,233.350342 
	C614.877380,232.714371 615.788147,235.967285 616.165466,239.086792 
	C616.522827,242.040482 617.972717,244.878311 619.052185,247.725342 
	C622.694275,257.330902 626.279175,266.960297 630.088257,276.499786 
	C633.728333,285.616180 637.480408,294.694489 641.484131,303.655121 
	C642.773499,306.540771 644.499817,309.448303 648.329956,310.071686 
	C649.386169,310.243561 650.247925,311.610535 651.198914,312.429138 
	C651.029114,312.943207 650.859253,313.457275 650.689392,313.971344 
	C645.811279,313.971344 640.933105,313.971252 636.054993,313.971375 
	C630.556702,313.971527 625.056335,314.046906 619.562439,313.891510 
	C618.736938,313.868134 617.754883,312.887268 617.239929,312.093262 
	C617.072571,311.835266 618.010681,310.439514 618.702942,310.110291 
	C625.182068,307.028900 625.586243,305.977661 622.839478,298.923706 
	C622.091125,297.001862 621.589600,294.982208 620.809937,293.074829 
	C620.035095,291.179260 619.052856,289.368500 617.871216,286.918457 
	C609.035522,287.363251 599.826965,287.826843 590.554749,288.293640 
	C589.212891,293.578705 588.229248,298.757141 586.540588,303.694427 
	C585.172791,307.693695 586.750793,309.078064 590.231812,309.957916 
	C591.546631,310.290222 592.682739,311.329987 593.900269,312.047241 
	C592.464661,312.702057 591.042908,313.884521 589.591187,313.922394 
	C582.431702,314.109222 575.264221,313.992798 567.670288,313.946777 
M612.998962,272.329041 
	C612.062317,270.582947 611.125671,268.836823 610.004761,266.464264 
	C609.238464,264.068665 608.608521,261.616821 607.652039,259.299774 
	C607.126831,258.027679 606.051392,256.982758 605.224121,255.835373 
	C604.486755,256.865387 603.517029,257.800323 603.050415,258.941071 
	C600.314514,265.629211 597.696045,272.365387 594.907532,279.701263 
	C595.054443,280.297180 595.194885,281.412567 595.349060,281.414459 
	C602.354004,281.500519 609.360168,281.489075 617.694092,281.489075 
	C615.611084,277.760864 614.272339,275.364807 613.009155,272.999847 
	C613.009155,272.999847 612.978394,273.075531 612.998962,272.329041 
z"/>
<path fill="#1E4B8A" opacity="1.000000" stroke="none" 
	d="
M789.989258,313.988434 
	C783.326843,313.998810 777.158875,314.112915 770.999390,313.934143 
	C769.692322,313.896240 768.416321,312.789734 767.126038,312.175537 
	C768.307922,311.443573 769.477478,310.107819 770.673706,310.083496 
	C776.035828,309.974518 777.770996,306.044067 777.836792,302.152679 
	C778.163269,282.830719 778.074951,263.499725 777.927246,244.173492 
	C777.897583,240.294083 775.942017,237.726288 771.374878,237.889099 
	C769.866272,237.942902 768.312866,236.741730 766.779968,236.114365 
	C766.957458,235.406754 767.134949,234.699158 767.312500,233.991562 
	C770.063904,233.991562 772.815369,233.987656 775.566772,233.992310 
	C783.897766,234.006363 792.230347,233.949997 800.557861,234.128708 
	C801.657166,234.152283 802.730591,235.381683 803.816040,236.052612 
	C802.875244,236.684570 801.867004,237.941269 801.004456,237.848145 
	C794.921814,237.191284 794.138611,240.991180 794.136475,245.584854 
	C794.127502,264.912811 794.092163,284.240845 794.136658,303.568695 
	C794.145203,307.283234 795.002441,310.342773 799.891418,310.133667 
	C801.309998,310.072968 802.783508,311.298676 804.231873,311.934692 
	C804.049744,312.619019 803.867676,313.303375 803.685608,313.987701 
	C799.285950,313.987701 794.886353,313.987701 789.989258,313.988434 
z"/>
<path fill="#306EB1" opacity="1.000000" stroke="none" 
	d="
M684.848206,187.038574 
	C677.737610,195.176254 667.731873,198.737869 658.538391,203.554306 
	C657.328979,204.187943 655.605408,203.774399 654.145447,204.006302 
	C643.226379,205.740738 632.362549,206.061646 621.875366,201.923172 
	C616.153931,199.665375 610.454041,197.287140 605.896973,192.815933 
	C603.085876,190.057846 599.868408,187.713959 596.833435,185.184128 
	C596.951111,184.648102 597.068848,184.112091 597.186523,183.576065 
	C599.631714,183.394653 602.106750,182.884583 604.515625,183.103363 
	C608.915649,183.502991 613.298950,184.212555 617.647461,185.018295 
	C622.245850,185.870316 626.783875,187.042130 631.368591,187.974396 
	C643.849365,190.512283 655.606323,188.836044 666.422302,181.820450 
	C666.962646,181.469955 667.593689,181.259323 668.821167,181.195770 
	C671.285828,182.033524 673.124878,182.623657 674.934814,183.292374 
	C678.248352,184.516602 681.544678,185.787262 684.848206,187.038574 
z"/>
<path fill="#306EB1" opacity="1.000000" stroke="none" 
	d="
M730.002197,201.086990 
	C723.955322,202.940033 718.113220,204.971420 712.113953,205.688751 
	C707.638489,206.223892 702.923035,205.297668 698.381958,204.589050 
	C693.613831,203.844955 688.926331,202.584763 682.930908,201.271317 
	C685.138428,198.443100 687.239197,196.248993 688.756470,193.706635 
	C692.147400,188.024521 696.249390,187.305038 702.841187,188.592056 
	C710.182983,190.025497 718.116272,189.744949 725.382996,185.535522 
	C727.913391,184.069702 731.909607,185.290558 735.199768,184.940567 
	C739.294739,184.504959 743.344299,183.657867 747.429321,183.105881 
	C748.841431,182.915054 750.300964,183.075516 753.257141,183.075516 
	C747.127380,192.564087 739.294128,197.466537 730.002197,201.086990 
z"/>
<path fill="#B6CC29" opacity="1.000000" stroke="none" 
	d="
M821.094482,64.040848 
	C817.805054,65.355316 814.549561,66.764046 811.218689,67.963318 
	C805.464233,70.035133 799.662903,71.976898 793.127075,73.888947 
	C791.089478,73.542686 789.817627,73.166458 788.521057,73.036835 
	C778.082947,71.993286 767.623413,71.134201 757.212341,69.872841 
	C755.032104,69.608688 753.025024,67.914505 750.938171,66.879303 
	C755.924438,65.254623 760.874084,63.504284 765.905640,62.034634 
	C773.494690,59.817963 781.123779,57.730938 788.774658,55.737915 
	C790.803284,55.209454 792.973999,55.226326 795.846008,55.137146 
	C800.601257,56.207237 804.576599,57.196438 808.582214,58.042164 
	C813.254639,59.028671 818.144348,59.490536 821.094482,64.040848 
z"/>
<path fill="#BFD021" opacity="1.000000" stroke="none" 
	d="
M821.483643,64.000153 
	C818.144348,59.490536 813.254639,59.028671 808.582214,58.042164 
	C804.576599,57.196438 800.601257,56.207237 796.274902,55.107796 
	C796.618835,54.300629 797.194641,53.352348 797.998352,53.082283 
	C806.225586,50.317692 814.982483,48.630108 822.620972,44.737270 
	C832.541016,39.681736 843.109802,34.806339 848.562744,23.060343 
	C852.401001,26.894350 851.447327,31.004807 850.707825,34.227154 
	C848.756348,42.730400 844.588013,49.917320 836.455078,54.386116 
	C831.374756,57.177635 826.719055,60.741943 821.483643,64.000153 
z"/>
<path fill="#B6CC29" opacity="1.000000" stroke="none" 
	d="
M554.050659,54.889511 
	C561.512878,55.606884 568.846375,56.773674 575.474731,60.642208 
	C576.123962,61.021099 577.075073,60.853905 577.871094,61.014423 
	C584.461670,62.343357 591.052429,63.672226 597.629456,65.065826 
	C598.130310,65.171951 598.526001,65.774155 598.692810,66.740189 
	C596.664490,67.839325 594.934937,68.680786 593.159851,68.791229 
	C584.876221,69.306656 576.583130,69.758995 568.286926,69.949257 
	C563.944458,70.048836 562.454468,71.683029 563.987793,75.815674 
	C557.425171,73.043442 549.896484,73.249443 543.796692,68.764313 
	C541.485657,67.065033 538.001282,67.035263 535.158813,65.961044 
	C533.028137,65.155853 531.068970,63.897041 529.056519,62.088413 
	C530.877136,60.232765 532.593201,58.381802 534.488586,58.175110 
	C538.911560,57.692795 543.455017,58.322563 547.880066,57.849907 
	C550.017944,57.621548 551.998718,55.922604 554.050659,54.889511 
z"/>
<path fill="#BFD021" opacity="1.000000" stroke="none" 
	d="
M554.032715,54.470642 
	C551.998718,55.922604 550.017944,57.621548 547.880066,57.849907 
	C543.455017,58.322563 538.911560,57.692795 534.488586,58.175110 
	C532.593201,58.381802 530.877136,60.232765 529.022644,61.717831 
	C524.251160,59.583145 519.186462,57.543110 514.926636,54.409184 
	C511.139923,51.623379 507.982056,47.834541 505.018463,44.112720 
	C500.477478,38.409889 499.696014,31.580488 500.153595,23.075640 
	C502.407318,24.686739 504.386597,25.464172 505.374969,26.916126 
	C510.219543,34.032967 516.769165,38.839790 524.551880,42.261833 
	C532.318237,45.676704 539.952393,49.393070 547.733154,52.773315 
	C549.650330,53.606194 551.911682,53.646893 554.032715,54.470642 
z"/>
<path fill="#97B660" opacity="1.000000" stroke="none" 
	d="
M585.956360,114.111893 
	C576.064392,111.628540 566.168213,109.161835 556.283569,106.649574 
	C553.949768,106.056427 551.654968,105.309998 549.359253,104.038544 
	C553.073425,102.295105 556.749756,101.073433 560.472839,100.016640 
	C566.038757,98.436775 572.461121,99.648941 577.049255,94.896820 
	C589.512390,97.005623 601.529541,100.509621 612.661377,106.827431 
	C608.714050,108.556801 604.965027,109.996613 601.097656,110.962372 
	C596.100037,112.210350 591.007812,113.079575 585.956360,114.111893 
z"/>
<path fill="#91B46D" opacity="1.000000" stroke="none" 
	d="
M787.999084,109.843803 
	C780.986084,111.206856 773.948914,112.458160 766.966614,113.963448 
	C759.547668,115.562859 751.737061,116.399643 744.913635,119.415764 
	C737.861450,122.532982 729.919922,124.632019 724.502502,130.910233 
	C723.630188,131.921127 722.340759,132.572052 721.180847,133.436615 
	C716.344666,125.077034 728.959717,110.289192 741.791382,104.261444 
	C745.078552,105.280739 747.776855,106.621407 750.512146,106.701767 
	C761.774963,107.032646 773.051331,106.895164 784.315857,107.190147 
	C785.565918,107.222878 786.772400,108.919067 787.999084,109.843803 
z"/>
<path fill="#B1C834" opacity="1.000000" stroke="none" 
	d="
M750.489624,66.927368 
	C753.025024,67.914505 755.032104,69.608688 757.212341,69.872841 
	C767.623413,71.134201 778.082947,71.993286 788.521057,73.036835 
	C789.817627,73.166458 791.089478,73.542686 792.750000,73.975388 
	C787.062866,75.944695 781.059692,77.997063 774.918396,79.476044 
	C767.627563,81.231903 760.217896,82.494392 752.316772,83.567467 
	C750.342468,82.177071 748.962891,80.435715 747.470520,80.332924 
	C740.922791,79.881935 734.340698,79.957756 727.774597,79.736687 
	C723.710144,79.599854 719.087646,81.836296 716.002319,77.164047 
	C724.380737,73.892258 732.685120,70.405670 741.180969,67.474297 
	C743.871460,66.545998 747.073242,67.099861 750.489624,66.927368 
z"/>
<path fill="#97B660" opacity="1.000000" stroke="none" 
	d="
M788.358704,109.790512 
	C786.772400,108.919067 785.565918,107.222878 784.315857,107.190147 
	C773.051331,106.895164 761.774963,107.032646 750.512146,106.701767 
	C747.776855,106.621407 745.078552,105.280739 742.157471,104.208511 
	C746.045471,102.277664 750.027649,100.229622 754.256409,99.127007 
	C763.133484,96.812340 772.149658,95.034950 781.085571,92.938377 
	C782.841431,92.526398 784.492920,91.669388 786.704468,91.416733 
	C790.250000,93.202019 793.161255,95.107452 796.344727,95.857529 
	C801.651794,97.107979 807.183350,97.495537 811.088562,102.000977 
	C806.312500,103.341347 801.485535,104.527435 796.779663,106.080460 
	C793.993713,106.999847 791.398987,108.498848 788.358704,109.790512 
z"/>
<path fill="#7BA48D" opacity="1.000000" stroke="none" 
	d="
M807.100952,133.022247 
	C804.970215,133.919556 802.759094,134.664825 800.722717,135.740692 
	C792.310791,140.184860 783.028625,141.331589 773.246338,142.753815 
	C769.247498,141.336533 765.826050,140.308334 762.529419,138.972275 
	C756.962708,136.716141 751.474915,134.265106 745.953979,131.896011 
	C746.378052,131.294296 746.724121,130.247330 747.237854,130.157364 
	C755.576050,128.696838 763.935486,127.357300 772.290222,125.991241 
	C776.277344,125.339325 780.264648,124.689217 784.733215,124.426918 
	C786.797302,125.874336 788.245422,127.338379 789.987610,127.917351 
	C795.633972,129.793732 801.388245,131.345459 807.100952,133.022247 
z"/>
<path fill="#4984B2" opacity="1.000000" stroke="none" 
	d="
M781.132751,167.047134 
	C776.852722,169.022598 772.727844,172.133698 768.261230,172.744247 
	C758.011719,174.145264 747.596252,174.338531 737.246582,174.997818 
	C733.684265,175.224762 730.117432,175.379684 726.151001,175.588684 
	C726.833557,169.576431 730.519409,165.501266 735.000244,162.081802 
	C740.954712,157.537674 748.218384,158.791061 755.749817,158.161728 
	C764.704834,161.235001 772.918762,164.141068 781.132751,167.047134 
z"/>
<path fill="#AAC43E" opacity="1.000000" stroke="none" 
	d="
M715.649597,77.207001 
	C719.087646,81.836296 723.710144,79.599854 727.774597,79.736687 
	C734.340698,79.957756 740.922791,79.881935 747.470520,80.332924 
	C748.962891,80.435715 750.342468,82.177071 751.888062,83.499664 
	C749.194031,85.146530 746.501465,86.889099 743.553589,87.680267 
	C737.288452,89.361717 730.752075,89.294182 725.040405,93.715813 
	C721.603088,96.376747 716.299927,96.627472 711.115479,97.880920 
	C704.561401,95.518143 698.727051,93.235786 692.892761,90.953423 
	C694.818909,89.310333 696.551880,87.331795 698.709106,86.090080 
	C704.136353,82.966080 709.754944,80.174683 715.649597,77.207001 
z"/>
<path fill="#4984B2" opacity="1.000000" stroke="none" 
	d="
M594.101685,157.983200 
	C601.193665,157.855133 608.040771,158.857162 614.514648,161.996094 
	C617.837769,163.607315 621.998047,170.357544 621.716492,175.670441 
	C612.213318,174.984573 602.716553,174.308319 593.221558,173.607239 
	C590.928833,173.437958 588.642334,173.184448 586.352661,172.973358 
	C580.115906,172.398392 574.660400,169.677322 569.229492,166.082428 
	C570.808960,164.509766 572.337158,163.243393 574.077942,162.786407 
	C580.715393,161.043869 587.421326,159.562271 594.101685,157.983200 
z"/>
<path fill="#81A985" opacity="1.000000" stroke="none" 
	d="
M548.969055,135.063614 
	C541.195801,134.008759 536.305420,128.442108 531.795105,123.038651 
	C528.442383,119.021957 526.581055,113.760315 524.881958,108.199997 
	C543.498779,120.889435 564.908325,122.922356 585.691284,127.889610 
	C583.613525,129.564743 581.513916,131.271576 579.278076,131.474106 
	C570.747253,132.246918 562.165710,132.444519 553.620239,133.085236 
	C552.029358,133.204514 550.517395,134.377121 548.969055,135.063614 
z"/>
<path fill="#AAC43E" opacity="1.000000" stroke="none" 
	d="
M621.963074,90.144943 
	C614.558594,88.536926 606.990295,88.236061 599.943970,84.357895 
	C595.511047,81.918106 589.667480,82.048866 584.462646,80.997063 
	C583.531677,80.808914 582.629700,80.477219 581.560852,79.709679 
	C588.691345,78.409653 595.993469,76.839104 603.254578,77.009827 
	C612.285767,77.222153 621.270935,79.017242 630.305237,79.782890 
	C632.151917,79.939384 634.128296,78.564186 636.044922,77.895050 
	C644.408447,81.022018 651.621460,86.088829 658.350464,91.679932 
	C646.744324,91.152725 635.511780,90.272774 624.273987,89.465111 
	C623.523804,89.411186 622.734314,89.905571 621.963074,90.144943 
z"/>
<path fill="#7BA48D" opacity="1.000000" stroke="none" 
	d="
M549.173462,135.377411 
	C550.517395,134.377121 552.029358,133.204514 553.620239,133.085236 
	C562.165710,132.444519 570.747253,132.246918 579.278076,131.474106 
	C581.513916,131.271576 583.613525,129.564743 585.911987,128.215500 
	C588.884949,128.281738 591.725586,128.656296 594.554138,129.107178 
	C594.987610,129.176285 595.428650,129.886185 595.758972,129.813400 
	C602.242859,128.384781 606.804871,133.232712 612.619019,135.362244 
	C611.481201,136.875656 610.197632,138.368256 608.642212,138.748276 
	C604.468445,139.768021 600.100281,140.025345 595.963684,141.152100 
	C593.491699,141.825439 591.310181,143.564880 588.998108,144.825104 
	C580.695618,143.516968 572.322693,142.537323 564.116577,140.779312 
	C559.071838,139.698563 554.282166,137.427673 549.173462,135.377411 
z"/>
<path fill="#A0BC50" opacity="1.000000" stroke="none" 
	d="
M576.848267,94.571106 
	C572.461121,99.648941 566.038757,98.436775 560.472839,100.016640 
	C556.749756,101.073433 553.073425,102.295105 549.143921,103.719604 
	C540.510376,103.093536 533.298218,99.170135 526.221008,94.963470 
	C524.744812,94.086029 523.520569,92.784821 522.372681,91.194244 
	C528.978699,88.627625 535.392212,86.545662 541.805725,84.463699 
	C546.700928,85.968948 551.566345,87.581367 556.498596,88.953224 
	C563.187988,90.813766 569.928589,92.490067 576.848267,94.571106 
z"/>
<path fill="#B1C834" opacity="1.000000" stroke="none" 
	d="
M635.837891,77.564583 
	C634.128296,78.564186 632.151917,79.939384 630.305237,79.782890 
	C621.270935,79.017242 612.285767,77.222153 603.254578,77.009827 
	C595.993469,76.839104 588.691345,78.409653 581.200073,79.522835 
	C576.731262,78.596718 572.483337,77.304893 568.198608,76.149452 
	C567.131165,75.861588 565.945068,76.013947 564.400635,75.889816 
	C562.454468,71.683029 563.944458,70.048836 568.286926,69.949257 
	C576.583130,69.758995 584.876221,69.306656 593.159851,68.791229 
	C594.934937,68.680786 596.664490,67.839325 598.733154,67.114807 
	C601.088013,66.932526 603.124634,66.970047 605.703979,67.138000 
	C606.246643,67.268433 606.611450,67.294411 606.611450,67.294411 
	C606.611450,67.294411 606.948181,67.136978 606.948181,67.136971 
	C607.773804,67.746651 608.514465,68.658646 609.438416,68.918243 
	C616.880859,71.009369 624.374084,72.920654 631.809692,75.034851 
	C633.181030,75.424774 634.362061,76.483887 635.837891,77.564583 
z"/>
<path fill="#A0BC50" opacity="1.000000" stroke="none" 
	d="
M811.456787,101.984863 
	C807.183350,97.495537 801.651794,97.107979 796.344727,95.857529 
	C793.161255,95.107452 790.250000,93.202019 787.108887,91.486832 
	C789.348206,90.425102 791.684631,89.656181 794.044373,88.967354 
	C798.687378,87.612000 803.392517,86.449341 807.979980,84.929489 
	C812.430481,83.455032 816.765747,81.632675 821.695068,80.251816 
	C823.721008,81.349548 825.142883,82.309509 826.699280,82.934601 
	C829.511536,84.064079 832.404114,84.993492 835.263184,86.006477 
	C830.851196,89.651398 826.622009,93.554840 821.962341,96.849449 
	C818.905090,99.011086 815.225708,100.292900 811.456787,101.984863 
z"/>
<path fill="#A0BC50" opacity="1.000000" stroke="none" 
	d="
M622.146729,90.456619 
	C622.734314,89.905571 623.523804,89.411186 624.273987,89.465111 
	C635.511780,90.272774 646.744324,91.152725 658.405273,92.020035 
	C660.971558,93.622276 663.516113,94.893196 665.139648,96.906769 
	C666.884521,99.070892 669.188904,102.240120 668.716858,104.423218 
	C667.816650,108.586830 665.180908,112.397057 663.035461,116.224998 
	C662.877014,116.507584 660.545593,116.116653 659.778320,115.424652 
	C655.062866,111.171570 650.938904,106.117241 645.776550,102.545990 
	C640.591797,98.959213 634.420654,96.801315 628.692017,93.996338 
	C626.556580,92.950760 624.450073,91.846054 622.146729,90.456619 
z"/>
<path fill="#729E98" opacity="1.000000" stroke="none" 
	d="
M745.575928,131.950867 
	C751.474915,134.265106 756.962708,136.716141 762.529419,138.972275 
	C765.826050,140.308334 769.247498,141.336533 772.825317,142.796265 
	C769.739258,143.696960 766.455383,144.405807 763.138611,144.889099 
	C757.760681,145.672729 752.230713,145.797470 747.003052,147.132614 
	C740.075928,148.901794 733.377930,151.568222 725.970642,154.054077 
	C723.446289,151.961517 723.003662,147.629959 726.553650,144.489624 
	C732.176453,139.515686 737.024109,133.222900 745.575928,131.950867 
z"/>
<path fill="#27528F" opacity="1.000000" stroke="none" 
	d="
M634.007202,342.135254 
	C633.528809,328.325348 650.832214,323.641724 659.267395,330.211365 
	C667.554077,336.665405 668.034180,347.392242 660.093689,354.549500 
	C654.672546,359.435944 648.904053,359.774261 642.565308,357.863983 
	C637.357544,356.294495 634.109436,350.229095 634.007202,342.135254 
M642.622864,334.357422 
	C637.229248,344.841278 641.488953,354.441284 651.886597,356.384491 
	C657.967957,351.725891 658.317871,345.973907 657.275452,339.027405 
	C656.653320,334.881134 655.615051,332.298676 652.086487,330.590515 
	C647.945862,328.586151 645.763367,331.629364 642.622864,334.357422 
z"/>
<path fill="#27528F" opacity="1.000000" stroke="none" 
	d="
M619.014526,348.819824 
	C619.437134,352.117126 619.861511,354.941559 620.340027,358.126770 
	C616.309937,359.937378 613.122803,358.114594 613.034912,352.870880 
	C612.995850,350.541046 612.984558,348.210693 612.937012,345.881073 
	C612.930420,345.557220 612.788025,345.236176 612.593994,344.449524 
	C608.694641,344.449524 604.675232,344.449524 599.965576,344.449524 
	C599.965576,347.462402 599.830811,350.413391 599.997803,353.347260 
	C600.237244,357.553864 598.332886,358.677673 593.859131,357.471588 
	C593.859131,347.956726 593.859131,338.390900 593.859131,328.661957 
	C599.146179,327.210449 599.935913,327.775970 599.966370,333.659485 
	C599.977478,335.812073 599.968140,337.964783 599.968140,340.566162 
	C604.303467,340.566162 608.326355,340.566162 612.873474,340.566162 
	C612.873474,336.530701 612.873474,332.607483 612.873474,328.359009 
	C615.425415,328.359009 617.464478,328.359009 619.016235,328.359009 
	C619.016235,335.199493 619.016235,341.773193 619.014526,348.819824 
z"/>
<path fill="#91B46D" opacity="1.000000" stroke="none" 
	d="
M586.191284,114.453606 
	C591.007812,113.079575 596.100037,112.210350 601.097656,110.962372 
	C604.965027,109.996613 608.714050,108.556801 612.823730,107.146530 
	C622.873352,112.289040 630.658081,124.456421 629.456055,133.675507 
	C616.849487,122.737717 602.256226,117.274414 586.191284,114.453606 
z"/>
<path fill="#81A985" opacity="1.000000" stroke="none" 
	d="
M807.415344,132.893082 
	C801.388245,131.345459 795.633972,129.793732 789.987610,127.917351 
	C788.245422,127.338379 786.797302,125.874336 785.106262,124.486771 
	C792.249695,122.105171 799.577148,120.280540 806.722961,117.908638 
	C810.626648,116.612885 814.216309,114.377045 817.961060,112.593414 
	C819.381775,111.916695 820.840393,111.319389 822.813965,110.451950 
	C823.755737,119.329971 818.673889,124.220490 813.300781,128.887100 
	C811.602478,130.362091 809.595459,131.481674 807.415344,132.893082 
z"/>
<path fill="#4984B2" opacity="1.000000" stroke="none" 
	d="
M684.996338,186.719452 
	C681.544678,185.787262 678.248352,184.516602 674.934814,183.292374 
	C673.124878,182.623657 671.285828,182.033524 669.188477,181.150024 
	C672.710266,176.040680 676.523804,171.204987 680.283630,166.327850 
	C681.348999,164.945999 682.257446,163.443207 683.815979,162.203766 
	C688.311218,163.934998 692.228394,165.458389 696.145508,166.981781 
	C694.286804,174.479050 690.181580,180.703674 684.996338,186.719452 
z"/>
<path fill="#729E98" opacity="1.000000" stroke="none" 
	d="
M589.411133,144.898254 
	C591.310181,143.564880 593.491699,141.825439 595.963684,141.152100 
	C600.100281,140.025345 604.468445,139.768021 608.642212,138.748276 
	C610.197632,138.368256 611.481201,136.875656 612.954834,135.543213 
	C613.371216,135.065674 613.647644,135.157654 614.107056,135.881592 
	C614.626709,136.506927 614.889587,136.722672 615.152405,136.938416 
	C622.547485,141.074814 625.863831,147.888275 628.431519,155.714935 
	C620.514893,152.678589 613.418091,149.822784 606.208862,147.286682 
	C604.428528,146.660385 602.253967,147.261871 600.310974,146.967056 
	C596.795410,146.433624 593.317688,145.650360 589.411133,144.898254 
z"/>
<path fill="#AAC43E" opacity="1.000000" stroke="none" 
	d="
M541.572021,84.184875 
	C535.392212,86.545662 528.978699,88.627625 522.227356,90.873718 
	C517.533264,90.939980 516.136658,87.470482 514.787292,84.358223 
	C512.424744,78.909286 507.738159,74.154114 509.199310,67.444092 
	C518.274841,72.675117 527.258484,77.853203 536.740356,83.184502 
	C537.238647,83.337715 537.643616,83.380219 537.643616,83.380219 
	C537.643616,83.380219 538.021301,83.217697 538.021301,83.217697 
	C539.126953,83.447151 540.232666,83.676605 541.572021,84.184875 
z"/>
<path fill="#729E98" opacity="1.000000" stroke="none" 
	d="
M696.462524,166.743713 
	C692.228394,165.458389 688.311218,163.934998 684.195190,162.122711 
	C685.026794,158.825485 686.166565,155.849380 687.064392,152.801971 
	C688.781921,146.971924 690.337219,141.094208 692.027893,135.255936 
	C692.257202,134.464188 692.878540,133.785919 693.318359,133.055115 
	C693.892395,133.644150 694.845581,134.156876 694.981812,134.834015 
	C696.375977,141.763214 698.075134,148.676880 698.751831,155.685379 
	C699.090820,159.195923 697.498474,162.892960 696.462524,166.743713 
z"/>
<path fill="#538CAE" opacity="1.000000" stroke="none" 
	d="
M781.487305,167.013214 
	C772.918762,164.141068 764.704834,161.235001 756.192993,158.156876 
	C760.348999,157.323135 764.814819,156.050903 769.254089,156.137238 
	C776.649841,156.281113 783.075928,153.968491 789.309875,150.412491 
	C790.785339,149.570831 792.573975,149.278000 794.286804,148.710068 
	C795.484436,155.015533 789.840088,163.006271 781.487305,167.013214 
z"/>
<path fill="#A0BC50" opacity="1.000000" stroke="none" 
	d="
M692.582397,91.120743 
	C698.727051,93.235786 704.561401,95.518143 710.741577,97.892433 
	C706.664612,100.985970 702.241760,103.987572 697.084045,106.927521 
	C690.251404,106.537903 684.153687,106.209938 678.055908,105.881973 
	C680.875061,100.415878 685.475586,96.680656 690.335632,93.183128 
	C691.060303,92.661575 691.630371,91.925110 692.582397,91.120743 
z"/>
<path fill="#538CAE" opacity="1.000000" stroke="none" 
	d="
M593.848267,157.645172 
	C587.421326,159.562271 580.715393,161.043869 574.077942,162.786407 
	C572.337158,163.243393 570.808960,164.509766 569.074036,165.761856 
	C561.698547,162.869583 557.968018,156.974670 556.312195,148.982681 
	C568.214294,154.998276 580.788635,156.697769 593.848267,157.645172 
z"/>
<path fill="#81A985" opacity="1.000000" stroke="none" 
	d="
M682.091064,134.076630 
	C680.375854,141.958054 678.687683,149.845657 676.884705,157.706940 
	C676.764221,158.232285 675.715942,158.957031 675.201172,158.882721 
	C674.438416,158.772568 673.332336,158.172806 673.122803,157.534912 
	C670.537415,149.665527 667.225586,141.923401 668.996643,133.154877 
	C673.877808,133.347885 677.984436,133.712265 682.091064,134.076630 
z"/>
<path fill="#91B46D" opacity="1.000000" stroke="none" 
	d="
M682.411255,133.880646 
	C677.984436,133.712265 673.877808,133.347885 669.304565,132.969727 
	C668.966858,131.054443 668.858215,129.099060 669.274902,127.262871 
	C670.108826,123.587402 671.230225,119.977158 672.929199,116.234550 
	C678.462402,117.438362 683.299316,118.747604 688.136292,120.056854 
	C686.334656,124.599457 684.533081,129.142059 682.411255,133.880646 
z"/>
<path fill="#97B660" opacity="1.000000" stroke="none" 
	d="
M688.459229,119.906815 
	C683.299316,118.747604 678.462402,117.438362 673.250122,116.039772 
	C674.394714,112.670181 675.914551,109.389931 677.745117,105.995827 
	C684.153687,106.209938 690.251404,106.537903 696.730225,106.957130 
	C697.008728,107.855186 697.180603,108.864876 696.758728,109.435623 
	C694.174561,112.931252 691.455933,116.327438 688.459229,119.906815 
z"/>
<path fill="#729E98" opacity="1.000000" stroke="none" 
	d="
M653.161011,158.900360 
	C652.642761,148.810120 653.015137,138.904160 658.132019,129.761932 
	C660.511230,139.640106 662.735046,148.872818 664.449951,158.508057 
	C660.347778,158.907166 656.754395,158.903763 653.161011,158.900360 
z"/>
<path fill="#27528F" opacity="1.000000" stroke="none" 
	d="
M756.022949,357.833252 
	C754.570129,357.833252 753.117310,357.833252 751.319702,357.833252 
	C751.319702,347.874603 751.319702,338.308868 751.319702,328.400024 
	C753.902588,328.400024 756.267212,328.400024 758.008972,328.400024 
	C758.008972,337.511536 758.008972,346.272766 757.794312,355.645752 
	C757.060791,356.782776 756.541870,357.308014 756.022949,357.833252 
z"/>
<path fill="#27528F" opacity="1.000000" stroke="none" 
	d="
M720.796753,328.238159 
	C721.480042,330.114807 721.798096,331.874756 721.976379,333.648773 
	C722.323792,337.107574 722.875000,340.578888 722.817749,344.036346 
	C722.756653,347.724640 722.090210,351.402924 721.515808,356.663147 
	C727.636963,355.647583 732.700195,354.807587 738.808533,353.794159 
	C732.164246,362.538330 724.626282,357.888428 717.072754,357.926544 
	C717.072754,348.469971 717.007690,339.218689 717.214539,329.973511 
	C717.228760,329.335114 719.269897,328.742035 720.796753,328.238159 
z"/>
<path fill="#538CAE" opacity="1.000000" stroke="none" 
	d="
M653.092651,159.327621 
	C656.754395,158.903763 660.347778,158.907166 664.388794,158.892090 
	C665.455261,160.014069 666.283081,161.091660 666.649048,162.308243 
	C667.390442,164.772324 669.208252,168.407227 668.217712,169.606735 
	C665.641724,172.726059 663.338501,177.634995 656.550476,175.353409 
	C655.465149,170.552185 654.244751,165.153534 653.092651,159.327621 
z"/>
<path fill="#AAC43E" opacity="1.000000" stroke="none" 
	d="
M835.558838,85.821442 
	C832.404114,84.993492 829.511536,84.064079 826.699280,82.934601 
	C825.142883,82.309509 823.721008,81.349548 822.100342,80.198303 
	C828.390808,75.488693 834.819275,71.121315 841.662659,66.472099 
	C842.756653,72.725510 839.950073,77.193298 837.696533,81.807137 
	C837.074951,83.079857 836.468079,84.359795 835.558838,85.821442 
z"/>
<path fill="#27528F" opacity="1.000000" stroke="none" 
	d="
M686.159668,356.445129 
	C686.088806,346.889069 686.088806,337.777832 686.088806,328.666626 
	C686.536865,328.309692 686.984924,327.952759 687.432983,327.595825 
	C688.604248,328.670593 690.756104,329.714142 690.791443,330.825073 
	C691.070862,339.603180 690.946777,348.394135 690.946777,358.056030 
	C689.002136,357.575226 687.616333,357.232574 686.159668,356.445129 
z"/>
<path fill="#1E4B8A" opacity="1.000000" stroke="none" 
	d="
M756.385254,358.055786 
	C756.541870,357.308014 757.060791,356.782776 757.817505,356.111755 
	C763.347595,355.964813 769.405518,357.761902 770.954041,348.966705 
	C771.555237,349.424408 772.156494,349.882080 772.757751,350.339783 
	C772.462646,353.063049 772.167480,355.786316 771.793396,359.238129 
	C766.490356,358.899841 761.618896,358.589050 756.385254,358.055786 
z"/>
<path fill="#1E4B8A" opacity="1.000000" stroke="none" 
	d="
M733.978882,341.353851 
	C733.743042,343.794159 733.486450,345.822968 733.229858,347.851776 
	C733.591187,347.057159 733.952454,346.262573 734.313721,345.467957 
	C732.693665,343.837463 731.073547,342.206970 729.453491,340.576447 
	C730.060974,339.709015 732.183350,339.115295 733.978882,341.353851 
z"/>
<path fill="#B6CC29" opacity="1.000000" stroke="none" 
	d="
M606.716614,67.086235 
	C606.948181,67.136978 606.611450,67.294411 606.611450,67.294411 
	C606.611450,67.294411 606.246643,67.268433 606.135498,67.208282 
	C606.024414,67.148125 606.485046,67.035492 606.716614,67.086235 
z"/>
<path fill="#7BA48D" opacity="1.000000" stroke="none" 
	d="
M615.036743,136.695892 
	C614.889587,136.722672 614.626709,136.506927 614.193481,136.100983 
	C614.322327,136.091644 614.621704,136.272491 615.036743,136.695892 
z"/>
<path fill="#A0BC50" opacity="1.000000" stroke="none" 
	d="
M537.769043,83.153671 
	C538.021301,83.217697 537.643616,83.380219 537.643616,83.380219 
	C537.643616,83.380219 537.238647,83.337715 537.122009,83.262177 
	C537.175842,83.154312 537.346252,83.121979 537.769043,83.153671 
z"/>
<path fill="#000000" opacity="1.000000" stroke="none" 
	d="
M595.038086,279.085388 
	C597.696045,272.365387 600.314514,265.629211 603.050415,258.941071 
	C603.517029,257.800323 604.486755,256.865387 605.224121,255.835388 
	C606.051392,256.982758 607.126831,258.027679 607.652039,259.299774 
	C608.608521,261.616821 609.238464,264.068665 610.192810,267.105743 
	C611.246704,269.523346 612.112549,271.299438 612.978394,273.075531 
	C612.978394,273.075531 613.009155,272.999847 613.008545,273.399231 
	C613.180359,275.851288 613.352783,277.903900 613.575562,280.555267 
	C607.389893,280.064789 601.213989,279.575104 595.038086,279.085388 
z"/>
<path fill="#4984B2" opacity="1.000000" stroke="none" 
	d="
M594.972778,279.393311 
	C601.213989,279.575104 607.389893,280.064789 613.575562,280.555267 
	C613.352783,277.903900 613.180359,275.851288 612.970703,273.383728 
	C614.272339,275.364807 615.611084,277.760864 617.694092,281.489075 
	C609.360168,281.489075 602.354004,281.500519 595.349060,281.414459 
	C595.194885,281.412567 595.054443,280.297180 594.972778,279.393311 
z"/>
<path fill="#4984B2" opacity="1.000000" stroke="none" 
	d="
M612.988647,272.702271 
	C612.112549,271.299438 611.246704,269.523346 610.284912,267.418976 
	C611.125671,268.836823 612.062317,270.582947 612.988647,272.702271 
z"/>
<path fill="#000000" opacity="1.000000" stroke="none" 
	d="
M642.994141,334.213257 
	C645.763367,331.629364 647.945862,328.586151 652.086487,330.590515 
	C655.615051,332.298676 656.653320,334.881134 657.275452,339.027405 
	C658.317871,345.973907 657.967957,351.725891 651.886597,356.384491 
	C641.488953,354.441284 637.229248,344.841278 642.994141,334.213257 
z"/>
</svg>